<?xml version="1.0" encoding="utf-8"?>
<!-- Svg Vector Icons : http://www.onlinewebfonts.com/icon -->
<!DOCTYPE svg PUBLIC "-//W3C//DTD SVG 1.1//EN" "http://www.w3.org/Graphics/SVG/1.1/DTD/svg11.dtd">
<svg version="1.1" xmlns="http://www.w3.org/2000/svg" xmlns:xlink="http://www.w3.org/1999/xlink" x="0px" y="0px" viewBox="0 0 1000 1000" enable-background="new 0 0 1000 1000" xml:space="preserve">
<metadata> Svg Vector Icons : http://www.onlinewebfonts.com/icon </metadata>
<g><g transform="translate(0.000000,512.000000) scale(0.100000,-0.100000)"><path d="M2050.2,4989.3c-981.3-153-1769.5-948.8-1918.7-1935.9c-42.1-279.3-42.1-5585.8,0-5865.1c149.2-996.7,941.2-1786.7,1939.7-1935.9c271.6-42.1,5583.9-42.1,5855.5-1.9c1006.2,153,1790.5,937.3,1941.7,1941.6c42.1,273.6,42.1,5583.9,0,5857.4c-149.2,998.5-939.3,1790.5-1935.9,1939.7C7666.6,5029.5,2308.5,5029.5,2050.2,4989.3z M3718.3,1603.4c0-118.6-65-277.4-153-378.8c-88-99.5-244.9-185.6-338.6-185.6c-61.2,0-63.1,3.8-63.1,74.6c0,223.8,185.6,457.2,428.5,541.4c53.6,17.2,103.3,32.5,112.9,34.4C3712.6,1689.4,3718.3,1651.2,3718.3,1603.4z M5459.1,1331.7c-1.9-93.7-3.8-204.7-1.9-248.7l1.9-82.3h267.8h267.8V857.3V713.8h-267.8h-267.8l-1.9-137.7c0-76.5,0-365.4,0-640.8c0-457.2,3.8-510.7,38.3-587.2c51.6-120.5,120.5-151.1,309.9-141.6l151.1,5.7v-109c0-59.3,5.7-120.5,11.5-137.7c15.3-42.1-120.5-74.6-317.5-76.5c-332.9-1.9-497.4,143.5-552.9,485.9c-11.5,68.9-21,397.9-21,730.8v606.4l-156.9,5.7l-158.8,5.7l-5.7,139.6l-5.7,137.7H4912h162.6l5.7,195.1l5.7,195.1l162.6,51.7c89.9,28.7,174.1,51.6,189.4,53.6C5457.2,1498.1,5462.9,1461.8,5459.1,1331.7z M2972.3,931.9l208.5-68.9l206.6,70.8c179.8,63.1,220,70.8,340.5,63.1c168.3-11.5,319.5-76.5,428.5-185.5l80.3-80.3l-95.6-86.1c-141.6-128.2-202.8-264-202.8-457.2c0-197,51.7-315.6,191.3-449.5c57.4-51.7,109-95.7,118.6-95.7c7.7,0,26.8-7.6,42.1-17.2c21-13.4,7.6-51.7-59.3-195.1c-95.6-198.9-235.3-396-346.2-483.9c-103.3-82.3-254.4-91.8-424.7-23c-162.6,65.1-309.9,67-472.5,3.8c-204.7-74.6-254.4-78.4-371.1-21c-80.3,38.3-130.1,84.2-218.1,197c-361.5,462.9-484,1107.6-285,1499.8c91.8,179.8,298.4,340.5,484,378.8C2727.4,1006.5,2756.1,1002.7,2972.3,931.9z M6681.5,710c55.5-160.7,187.5-541.4,290.8-845.5c168.3-495.4,189.4-547.1,208.5-501.2c9.6,28.7,19.1,57.4,19.1,65c0,7.7,122.4,363.5,271.6,793.9l269.7,778.6h199h197l-24.9-61.2c-15.3-34.4-197-499.3-407.5-1033l-380.7-971.8h-181.7h-181.7L6574.4-45.6C6360.1,514.9,6186,979.7,6186,987.4c0,7.7,88,13.4,197,13.4h195.1L6681.5,710z" style="fill:#fff"/></g></g>
</svg>