<svg xmlns="http://www.w3.org/2000/svg" viewBox="0 0 50 50" width="50" height="50">
    <path d="M 38.1875 4.125 C 34.8725 4.125 32.411 5.4755 30.75 7.0625 C 30.623 6.9025 30.48475 6.74575 30.34375 6.59375 C 29.05475 5.20475 27.329 4.40925 25.625 4.40625 L 17.625 4.40625 L 17.59375 4.40625 L 15.625 4.40625 L 10.90625 4.40625 L 9.84375 4.40625 L 7.84375 4.40625 L 3 4.40625 L 1 4.40625 L 1 6.40625 L 1.03125 23.75 L 1.03125 25.75 L 3.03125 25.75 L 7.84375 25.75 L 9.84375 25.75 L 10.90625 25.75 L 15.625 25.75 L 17.59375 25.75 L 17.625 25.75 L 25.09375 25.75 C 27.52975 25.75 29.5455 24.54725 30.8125 22.90625 C 32.3775 24.40025 34.7625 25.84375 38.1875 25.84375 C 44.1535 25.84175 49.002 20.9415 49 14.9375 C 49 8.8775 44.2455 4.128 38.1875 4.125 z M 38.1875 6.125 C 43.0425 6.127 47 9.9775 47 14.9375 C 47.001 19.7915 43.0425 23.84275 38.1875 23.84375 C 33.3405 23.84375 30.942 20.286 30.25 18.875 C 30.247 21.119 28.11475 23.75 25.09375 23.75 L 17.625 23.75 L 17.625 6.40625 L 25.625 6.40625 C 28.119 6.41025 30.256 8.964 30.25 11.125 C 30.862 9.685 33.3435 6.125 38.1875 6.125 z M 3 6.40625 L 7.84375 6.40625 L 7.84375 12.875 L 10.90625 12.875 L 10.90625 6.40625 L 15.59375 6.40625 L 15.59375 23.75 L 10.90625 23.75 L 10.90625 17.03125 L 7.84375 17.03125 L 7.84375 23.75 L 3.03125 23.75 L 3 6.40625 z M 38.1875 8.9375 C 34.8765 8.9375 32.1875 11.6215 32.1875 14.9375 C 32.1875 18.2485 34.8765 20.9375 38.1875 20.9375 C 41.5005 20.9375 44.1875 18.2485 44.1875 14.9375 C 44.1875 11.6205 41.5005 8.9375 38.1875 8.9375 z M 22.09375 10.28125 L 22.09375 13.1875 L 24.46875 13.1875 C 25.16275 13.1875 25.71875 12.528 25.71875 11.75 C 25.71875 10.97 25.16175 10.28125 24.46875 10.28125 L 22.09375 10.28125 z M 38.1875 10.9375 C 40.3935 10.9375 42.1875 12.7325 42.1875 14.9375 C 42.1875 17.1415 40.3935 18.9375 38.1875 18.9375 C 35.9825 18.9375 34.1875 17.1415 34.1875 14.9375 C 34.1875 12.7325 35.9825 10.9375 38.1875 10.9375 z M 38.1875 12.9375 C 37.0825 12.9375 36.1875 13.8315 36.1875 14.9375 C 36.1875 16.0425 37.0825 16.9375 38.1875 16.9375 C 39.2935 16.9375 40.1875 16.0425 40.1875 14.9375 C 40.1875 13.8315 39.2925 12.9375 38.1875 12.9375 z M 29.40625 13.84375 C 29.08525 14.24375 28.20025 14.8665 27.65625 14.9375 C 28.20925 15.0055 29.0715 15.71725 29.4375 16.28125 C 29.3065 15.78825 29.29425 14.33875 29.40625 13.84375 z M 22.09375 16.78125 L 22.09375 19.71875 L 24.46875 19.71875 C 25.16375 19.71875 25.6875 19.029 25.6875 18.25 C 25.6875 17.468 25.16375 16.78125 24.46875 16.78125 L 22.09375 16.78125 z M 15 26 C 8.936 26 4 30.933 4 37 C 4 43.066 8.936 48 15 48 C 19.451043 48 23.26943 45.34217 25 41.53125 C 26.730336 45.341883 30.548224 48 35 48 C 41.065 48 46 43.065 46 37 C 46 30.934 41.065 26 35 26 C 30.558867 26 26.736093 28.639414 25 32.4375 C 23.229386 28.546892 19.35462 26 15 26 z M 15 28 C 18.992 28 22.3855 30.5895 23.5625 34.1875 L 18.84375 34.1875 C 18.84375 34.1875 17.81125 31.9375 14.78125 31.9375 C 14.78125 31.9375 12.29275 32.10725 11.34375 33.78125 C 11.34375 33.78125 9.26175 36.4425 11.34375 40.0625 C 11.34375 40.0625 12.511 42.11025 15 42.15625 C 15 42.15625 15.194 42.1875 15.5 42.1875 C 16.419 42.1875 18.37075 41.8805 19.21875 39.4375 L 14.15625 39.4375 L 14.15625 36 L 23.9375 36 C 23.9725 36.325 24 36.663 24 37 C 24 41.969 19.974 46 15 46 C 10.03 46 6 41.969 6 37 C 6 32.029 10.03 28 15 28 z M 35 28 C 39.969 28 44 32.029 44 37 C 44 41.969 39.969 46 35 46 C 30.028 46 26 41.969 26 37 C 26 32.029 30.028 28 35 28 z M 35.03125 31.0625 C 31.71925 31.0625 29.03125 33.7485 29.03125 37.0625 C 29.03125 40.3755 31.71825 43.0625 35.03125 43.0625 C 38.34525 43.0625 41.03125 40.3755 41.03125 37.0625 C 41.03125 33.7485 38.34525 31.0625 35.03125 31.0625 z M 35.03125 33.0625 C 37.23625 33.0625 39.03125 34.8565 39.03125 37.0625 C 39.03125 39.2695 37.23525 41.0625 35.03125 41.0625 C 32.82425 41.0625 31.03125 39.2695 31.03125 37.0625 C 31.03125 34.8565 32.82425 33.0625 35.03125 33.0625 z M 14.84375 33.9375 C 15.07275 33.9425 15.28075 33.96 15.46875 34 L 14.46875 34 C 14.61475 33.965 14.74075 33.9485 14.84375 33.9375 z M 35 35 C 33.896 35 33 35.894 33 37 C 33 38.104 33.896 39 35 39 C 36.104 39 37 38.104 37 37 C 37 35.894 36.105 35 35 35 z" fill="#FFFFFF" />
</svg>