<svg xmlns="http://www.w3.org/2000/svg" xmlns:xlink="http://www.w3.org/1999/xlink" version="1.1" x="0px" y="0px" viewBox="0 0 512 512" enable-background="new 0 0 512 512" xml:space="preserve"><path fill="#fff" d="M245.9,2.4C152,8.2,77.2,85.3,75.8,179.5c-0.8,51.5,20.6,101,58.8,135.8c25.1,22.9,39.5,55.7,39.5,90.2v15.9  c-9.5,3.4-16.4,12.4-16.4,23.1c0,13.6,11,24.6,24.6,24.6h17.1c3.9,23.2,24.1,41,48.4,41h16.4c24.3,0,44.5-17.8,48.4-41h17.1  c13.6,0,24.6-11,24.6-24.6c0-10.7-6.9-19.7-16.4-23.1v-15.9c0-34.5,14.3-67.3,39.2-89.9c37.5-34.1,59.1-82.6,59.1-133.2  C436.2,81.8,351.9-4.2,245.9,2.4z M264.2,493.6h-16.4c-15.2,0-28.1-10.5-31.7-24.6h79.9C292.3,483.2,279.4,493.6,264.2,493.6z   M329.7,452.7H182.3c-4.5,0-8.2-3.7-8.2-8.2s3.7-8.2,8.2-8.2h147.5c4.5,0,8.2,3.7,8.2,8.2S334.2,452.7,329.7,452.7z M256,297  c-18.1,0-32.8-14.7-32.8-32.8s14.7-32.8,32.8-32.8c18.1,0,32.8,14.7,32.8,32.8S274.1,297,256,297z M366.1,303.4  c-28.3,25.7-44.6,62.9-44.6,102.1v14.4h-57.3V312.6c23.2-3.9,41-24.1,41-48.4c0-27.1-22-49.2-49.2-49.2c-27.1,0-49.2,22-49.2,49.2  c0,24.3,17.8,44.5,41,48.4v107.2h-57.3v-14.4c0-39-16.3-76.3-44.9-102.3c-34.7-31.6-54.2-76.6-53.4-123.4  c1.3-85.6,69.4-154.4,154.6-161c101.2-7.9,176.5,83.5,173.1,163.6C417.9,228.2,400.3,272.4,366.1,303.4z"/></svg>