<?xml version="1.0" encoding="utf-8"?>
<!-- Svg Vector Icons : http://www.onlinewebfonts.com/icon -->
<!DOCTYPE svg PUBLIC "-//W3C//DTD SVG 1.1//EN" "http://www.w3.org/Graphics/SVG/1.1/DTD/svg11.dtd">
<svg version="1.1" xmlns="http://www.w3.org/2000/svg" xmlns:xlink="http://www.w3.org/1999/xlink" x="0px" y="0px" viewBox="0 0 1000 1000" enable-background="new 0 0 1000 1000" xml:space="preserve">
<metadata> Svg Vector Icons : http://www.onlinewebfonts.com/icon </metadata>
<g><g transform="translate(0.000000,68.000000) scale(0.100000,-0.100000)"><path style="fill:#fff" d="M128-3008c-16-12-28-616-28-1340v-1316l128,12l132,12l-16,912c-8,652,0,908,32,908c24,0,44-12,44-28c0-48,236-1580,260-1672c16-72,44-80,240-68l220,16v1300v1296l-124-12l-120-12l4-968c0-644-12-972-40-972c-20,0-40,12-40,24c0,84-284,1872-304,1900C492-2976,168-2968,128-3008z"/><path style="fill:#fff" d="M2060-4244c0-1136,8-1264,64-1240c36,12,168,24,300,24c236,0,236,0,236,120c0,116-8,120-180,120h-180v420v420h180c172,0,180,4,180,120s-8,120-180,120h-180v436v440l172,12c156,12,168,20,168,132v120l-288,12l-292,12V-4244z"/><path style="fill:#fff" d="M3368-3004c-16-16-28-80-28-144c0-100,12-112,140-112h140v-1052c0-580,8-1064,20-1076c12-8,72-12,140,0l120,16v1056v1056h144c136,0,140,4,128,132l-12,128l-380,12C3568-2984,3384-2988,3368-3004z"/><path style="fill:#fff" d="M5020-3000c0-12,0-548-4-1188v-1172l124-12l120-12v500v500l172,12c152,12,168,24,180,124c12,104,8,108-168,108h-184v436v440l172,12c156,12,168,20,168,132v120l-288,12C5152-2980,5020-2988,5020-3000z"/><path style="fill:#fff" d="M6488-3004c-16-16-28-556-28-1196v-1168l124-28c68-12,204-24,300-24c168,0,176,4,176,116s-12,120-168,132l-172,12l-8,1080l-8,1080l-96,12C6560-2980,6504-2988,6488-3004z"/><path style="fill:#fff" d="M7860-4216v-1244h120h120l-8,1232l-12,1228l-108,12l-112,12V-4216z"/><path d="M9020-3044c0-36,48-312,104-608l104-540l-104-644c-60-356-104-668-104-692c0-32,52-52,132-52h132l52,436c28,240,64,488,80,552l32,112l24-100c12-56,44-308,72-564l48-468l140-24c80-12,148-16,152-12c8,4-40,332-100,724l-108,712l108,564c64,312,112,592,116,620c0,28-52,48-136,48c-156,0-152,12-228-548c-28-204-64-372-80-372c-16,0-52,132-76,292c-28,156-60,360-76,448c-24,144-40,160-156,172C9048-2976,9020-2992,9020-3044z" style="fill:#fff"/></g></g>
</svg>