<?xml version="1.0" encoding="utf-8"?>
<!-- Generator: Adobe Illustrator 16.0.0, SVG Export Plug-In . SVG Version: 6.00 Build 0)  -->
<!DOCTYPE svg PUBLIC "-//W3C//DTD SVG 1.1//EN" "http://www.w3.org/Graphics/SVG/1.1/DTD/svg11.dtd">
<svg version="1.1"
	 id="svg2" xmlns:dc="http://purl.org/dc/elements/1.1/" xmlns:inkscape="http://www.inkscape.org/namespaces/inkscape" xmlns:rdf="http://www.w3.org/1999/02/22-rdf-syntax-ns#" xmlns:cc="http://creativecommons.org/ns#" xmlns:svg="http://www.w3.org/2000/svg" xmlns:sodipodi="http://sodipodi.sourceforge.net/DTD/sodipodi-0.dtd" inkscape:version="0.47 r22583"
	 xmlns="http://www.w3.org/2000/svg" xmlns:xlink="http://www.w3.org/1999/xlink" x="0px" y="0px" width="400.17px"
	 height="400.18px" viewBox="0 0 400.17 400.18" enable-background="new 0 0 400.17 400.18" xml:space="preserve">
<g id="layer1" transform="translate(260.80705,139.2842)" inkscape:label="Layer 1" inkscape:groupmode="layer">
	<path id="path37769" fill="#fff" d="M22.47,63.593c0-80.173,29.666-130.721,65.088-136.066
		C52.136-116-7.018-139.283-60.737-139.283c-59.154,0-112.285,25.683-148.885,66.447c34.924,6.931,46.79,36.236,46.79,81.575
		h-42.712c0-26.771-5.571-40.63-21.425-40.63c-7.111,0-12.639,3.624-15.899,9.784c-0.452,0.996-0.95,2.038-1.402,3.08
		c-1.225,3.442-1.902,7.429-1.902,11.821c0,55.44,91.042,52.679,91.042,137.923c0,33.246-25.5,64.272-54.218,64.272
		c37.73,41.22,89.275,65.904,148.611,65.904c57.705,0,109.658-24.416,146.165-63.503C51.776,188.921,22.47,140.5,22.47,63.593
		 M3.446,195.672h-45.793V81.8h-49.462v113.872h-45.883v-262.8H-91.9V38.726h49.553V-67.128H3.446V195.672z"/>
	<path id="path37773" fill="#fff" d="M-221.257,153.846c12.774,0,21.833-11.233,21.833-27.584
		c0-33.927-29.622-40.448-61.375-69.119C-261.25,115.165-243.27,153.846-221.257,153.846"/>
	<path id="path37777" fill="#fff" d="M67.977,59.353c0-44.253,12.863-88.506,36.371-88.506c27.947,0,35.015,68.395,35.015,90
		c0,47.425-14.948,90.182-35.015,90.182C80.252,151.029,67.977,105.964,67.977,59.353"/>
</g>
</svg>
