<svg xmlns="http://www.w3.org/2000/svg" xmlns:xlink="http://www.w3.org/1999/xlink" version="1.0" x="0px" y="0px" viewBox="0 0 100 100" enable-background="new 0 0 100 100" xml:space="preserve"><g><path fill="#fff" d="M73.887,13.562H26.112c-3.281,0-5.95,2.669-5.949,5.994l1.819,57.285c0,3.28,2.669,5.949,5.95,5.949h0.992v2.061   c0,0.773,0.626,1.4,1.399,1.4h2.358c0.773,0,1.4-0.627,1.4-1.4v-2.061h31.833v2.247c0,0.773,0.627,1.399,1.4,1.399h2.358   c0.773,0,1.399-0.626,1.399-1.399v-2.247h0.993c3.28,0,5.95-2.669,5.949-5.905l1.82-57.374   C79.837,16.231,77.168,13.562,73.887,13.562z M75.218,76.842c0,1.736-1.413,3.149-3.15,3.149H27.933   c-1.737,0-3.15-1.413-3.15-3.194l-1.82-57.285c0-1.736,1.413-3.149,3.15-3.149h47.774c1.737,0,3.15,1.413,3.151,3.105   L75.218,76.842z"/><circle fill="#fff" cx="71.899" cy="76.921" r="1.627"/><circle fill="#fff" cx="28.1" cy="76.921" r="1.627"/><circle fill="#fff" cx="73.265" cy="20.446" r="1.627"/><circle fill="#fff" cx="26.734" cy="20.446" r="1.627"/><path fill="#fff" d="M50,56.104c-5.163,0-9.363,4.199-9.363,9.362c0,5.162,4.2,9.362,9.363,9.362c5.162,0,9.362-4.2,9.362-9.362   C59.362,60.304,55.162,56.104,50,56.104z M50,72.029c-3.619,0-6.563-2.944-6.563-6.562c0-3.619,2.944-6.562,6.563-6.562   c3.618,0,6.562,2.943,6.562,6.562C56.562,69.085,53.618,72.029,50,72.029z"/><path fill="#fff" d="M50,21.524c-8.55,0-15.505,6.955-15.505,15.505S41.45,52.534,50,52.534c8.549,0,15.505-6.955,15.505-15.505   S58.549,21.524,50,21.524z M50,49.734c-7.006,0-12.705-5.699-12.705-12.705S42.994,24.324,50,24.324   c7.005,0,12.705,5.699,12.705,12.705S57.005,49.734,50,49.734z"/><path fill="#fff" d="M50,33.81c-1.775,0-3.22,1.444-3.22,3.22s1.444,3.22,3.22,3.22s3.22-1.444,3.22-3.22S51.775,33.81,50,33.81z"/><circle fill="#fff" cx="50" cy="65.581" r="2.521"/></g></svg>