<svg xmlns:dc="http://purl.org/dc/elements/1.1/" xmlns:cc="http://creativecommons.org/ns#" xmlns:rdf="http://www.w3.org/1999/02/22-rdf-syntax-ns#" xmlns:svg="http://www.w3.org/2000/svg" xmlns="http://www.w3.org/2000/svg" xmlns:sodipodi="http://sodipodi.sourceforge.net/DTD/sodipodi-0.dtd" xmlns:inkscape="http://www.inkscape.org/namespaces/inkscape" version="1.1" x="0px" y="0px" viewBox="0 0 100 100"><g transform="translate(0,-952.36218)"><path style="text-indent:0;text-transform:none;direction:ltr;block-progression:tb;baseline-shift:baseline;color:#fff;enable-background:accumulate;" d="m 12,965.36217 c -3.2178,0 -6,2.50041 -6,5.71875 l 0,48.53128 c 0,3.2183 2.7822,5.75 6,5.75 l 26.9375,0 c -0.097,2.2999 -0.3585,4.3482 -0.9375,5.9687 -0.7037,1.9698 -1.7062,3.2413 -3.4688,4.0313 l -3.5312,0 c -1.1046,0 -2,0.8954 -2,2 0,1.1046 0.8954,2 2,2 l 38,0 c 1.1046,0 2,-0.8954 2,-2 0,-1.1046 -0.8954,-2 -2,-2 l -3.5312,0 c -1.7627,-0.79 -2.7651,-2.0615 -3.4688,-4.0313 -0.579,-1.6205 -0.8406,-3.6688 -0.9375,-5.9687 l 26.9375,0 c 3.2179,0 6,-2.5317 6,-5.75 l 0,-48.53128 c 0,-3.21834 -2.7821,-5.71875 -6,-5.71875 l -76,0 z m 0,4 76,0 c 1.2142,0 2,0.80056 2,1.71875 l 0,48.53128 c 0,0.9182 -0.7858,1.75 -2,1.75 l -76,0 c -1.2142,0 -2,-0.8318 -2,-1.75 l 0,-48.53128 c 0,-0.91819 0.7858,-1.71875 2,-1.71875 z m 34,14 c -0.5049,-0.003 -1.0041,0.19155 -1.4062,0.59375 -3.248,3.3122 -6.7444,6.58995 -9.875,9.90625 -0.4301,0.3669 -0.7188,0.8907 -0.7188,1.5 0,0.6008 0.2681,1.1334 0.6875,1.5 3.3115,3.25153 6.6143,6.60403 9.9063,9.90623 0.7964,0.7849 1.9728,0.8005 2.8124,0 0.7992,-0.7622 0.781,-2.0315 0,-2.8125 l -6.5937,-6.59373 23.1875,0 c 1.1046,0 2,-0.8955 2,-2 0,-1.1045 -0.8954,-2 -2,-2 l -23.1875,0 6.5937,-6.59375 c 0.781,-0.781 0.781,-2.0315 0,-2.8125 -0.3905,-0.3905 -0.9013,-0.59082 -1.4062,-0.59375 z m -3.0625,42.00003 14.125,0 c 0.095,2.5894 0.3833,5.0615 1.1875,7.3125 0.3368,0.9427 0.7927,1.8543 1.3438,2.6875 l -19.1876,0 c 0.5509,-0.8332 1.007,-1.7448 1.3438,-2.6875 0.8042,-2.251 1.0923,-4.7231 1.1875,-7.3125 z" fill="#fff" fill-opacity="1" fill-rule="nonzero" stroke="none" marker="none" visibility="visible" display="inline" overflow="visible"/></g></svg>