<svg xmlns:dc="http://purl.org/dc/elements/1.1/" xmlns:cc="http://creativecommons.org/ns#" xmlns:rdf="http://www.w3.org/1999/02/22-rdf-syntax-ns#" xmlns:svg="http://www.w3.org/2000/svg" xmlns="http://www.w3.org/2000/svg" xmlns:sodipodi="http://sodipodi.sourceforge.net/DTD/sodipodi-0.dtd" xmlns:inkscape="http://www.inkscape.org/namespaces/inkscape" version="1.1" x="0px" y="0px" viewBox="0 0 100 100"><g transform="translate(0,-952.36218)"><path style="text-indent:0;text-transform:none;direction:ltr;block-progression:tb;baseline-shift:baseline;color:#fff;enable-background:accumulate;" d="m 12,965.36217 c -3.21785,0 -6,2.50041 -6,5.71875 l 0,48.53128 c 0,3.2183 2.78215,5.75 6,5.75 l 27.9375,0 -4.28125,10 -3.65625,0 c -1.10457,0 -2,0.8954 -2,2 0,1.1046 0.89543,2 2,2 l 36,0 c 1.1046,0 2,-0.8954 2,-2 0,-1.1046 -0.8954,-2 -2,-2 l -3.5938,0 -3.5624,-10 27.1562,0 c 3.2179,0 6,-2.5317 6,-5.75 l 0,-48.53128 c 0,-3.21834 -2.7821,-5.71875 -6,-5.71875 l -76,0 z m 0,4 76,0 c 1.2142,0 2,0.80056 2,1.71875 l 0,48.53128 c 0,0.9182 -0.7858,1.75 -2,1.75 l -76,0 c -1.21416,0 -2,-0.8318 -2,-1.75 l 0,-48.53128 c 0,-0.91819 0.78584,-1.71875 2,-1.71875 z m 42,14.00002 c -0.5049,0 -1.0157,0.2032 -1.4062,0.5937 -0.7809,0.781 -0.7809,2.0315 0,2.8125 l 6.5937,6.5938 -23.1875,0 c -1.1046,0 -2,0.8955 -2,2 0,1.1045 0.8954,2 2,2 l 23.1875,0 -6.5937,6.59371 c -0.7809,0.781 -0.7994,2.0503 0,2.8125 0.8396,0.8005 2.0158,0.7849 2.8124,0 3.2918,-3.3022 6.5949,-6.6547 9.9063,-9.90621 0.4194,-0.3666 0.6875,-0.8992 0.6875,-1.5 0,-0.6093 -0.2888,-1.1331 -0.7188,-1.5 -3.1307,-3.3163 -6.6271,-6.5941 -9.875,-9.9063 -0.4021,-0.4022 -0.9013,-0.5967 -1.4062,-0.5937 z m -9.6875,42.00001 12.2813,0 3.5937,10 -20.1563,0 4.2813,-10 z" fill="#fff" fill-opacity="1" fill-rule="nonzero" stroke="none" marker="none" visibility="visible" display="inline" overflow="visible"/></g></svg>